# xmcd
#
# Track frame offsets:
#	150
#	22985
#	47644
#	69398
#	96827
#	114879
#	134566
#	155212
#	178093
#	192472
#	219578
#	250290
#	271858
#	288266
#
# Disc length: 4187 seconds
#
# Revision: 1048389641
# Processed by: cddbd v1.5.2PL0 Copyright (c) Steve Scherf et al.
# Submitted via: EZCDAudioConverter 8.0.2.1
#
DISCID=ce10590e
DTITLE=Various Artist - Vân Sơn. Live Show 10
DYEAR=2002
DGENRE=Contemporary Pop
TTITLE0=Vân Sơn - Xin em một nụ cười
TTITLE1=Tâm Đoan - Em còn bé lắm anh ơi
TTITLE2=Tuấn Vũ - Lầm lỡ
TTITLE3=Hoài Linh - Ngày xuân vui cưới
TTITLE4=Tung Quang - Cry
TTITLE5=Chieu Phuong - I Who Have Nothing
TTITLE6=Ngoc Thuy - Chiều xuân
TTITLE7=Khánh Hoàng - Một giấc mơ buồn
TTITLE8=Cat Ly - We Got The Beat
TTITLE9=Phi Nhung - Tâm sự đời tôi
TTITLE10=Trường Vũ - Túy ca
TTITLE11=Hà Vy - Rồi mai em đi
TTITLE12=Tú Quyên - Tình mãi bên anh
TTITLE13=Hương Lan - Đàn sáo Hậu Giang
EXTD=
EXTT0=
EXTT1=
EXTT2=
EXTT3=
EXTT4=
EXTT5=
EXTT6=
EXTT7=
EXTT8=
EXTT9=
EXTT10=
EXTT11=
EXTT12=
EXTT13=
PLAYORDER=
